<?xml version="1.0" encoding="UTF-8"?>
<!DOCTYPE svg PUBLIC "-//W3C//DTD SVG 1.1//EN" "http://www.w3.org/Graphics/SVG/1.1/DTD/svg11.dtd">
<!-- Creator: CorelDRAW X7 -->
<svg xmlns="http://www.w3.org/2000/svg" xml:space="preserve" width="25.0001mm" height="26.3078mm" version="1.1" style="shape-rendering:geometricPrecision; text-rendering:geometricPrecision; image-rendering:optimizeQuality; fill-rule:evenodd; clip-rule:evenodd"
viewBox="0 0 253 267"
 xmlns:xlink="http://www.w3.org/1999/xlink">
 <defs>
  <style type="text/css">
   <![CDATA[
    .fil2 {fill:#2b2a29}
    .fil0 {fill:#CF142B}
    .fil1 {fill:#CF142B}
   ]]>
  </style>
 </defs>
 <g>
  <metadata/>
  <path class="fil0" d="M153 24c18,0 29,37 29,82 0,8 1,26 -6,34 -8,9 -14,10 -32,14l30 0 33 0 -34 10c-6,16 -16,25 -25,25 -19,0 -32,-37 -32,-83 0,-45 18,-82 37,-82zm-13 31c13,-25 22,-17 28,0 2,8 5,28 -3,34 -8,6 -17,5 -26,6l-8 34c-1,-27 2,-58 9,-74z"/>
  <path class="fil1" d="M130 0c-30,11 -61,38 -61,110 0,61 17,73 29,89 -8,-7 -19,-16 -27,-35l-24 -10 20 0c-3,-11 -5,-26 -5,-44 0,-80 38,-108 68,-110z"/>
  <path class="fil2" d="M165 22c-38,-36 -68,33 -69,88 -2,55 26,110 63,82 -4,6 -8,10 -14,13 39,0 51,1 82,3 -34,2 -45,3 -100,3 -55,0 -67,0 -101,-3 31,-3 45,-3 88,-3 -9,-4 -16,-11 -23,-21 -11,-17 -18,-42 -18,-74 0,-55 21,-91 46,-102 16,-7 37,-4 46,14z"/>
  <path class="fil2" d="M137 19c-11,14 -28,37 -28,91 0,55 12,75 32,86 -18,-2 -41,-27 -39,-86 1,-58 24,-87 35,-91z"/>
  <path class="fil2" d="M17 239l0 6 -17 0 0 -26 17 0 0 7 -10 0 0 3 9 0 0 6 -9 0 0 4 10 0zm21 0l0 6 -17 0 0 -26 7 0 0 20 10 0zm20 0l0 6 -17 0 0 -26 17 0 0 7 -10 0 0 3 9 0 0 6 -9 0 0 4 10 0zm16 7c-2,0 -4,0 -5,-1 -2,-1 -4,-2 -5,-3 -1,-1 -2,-2 -3,-4 0,-2 -1,-4 -1,-6 0,-2 1,-3 1,-5 1,-2 2,-3 3,-4 1,-2 3,-3 5,-3 1,-1 3,-1 5,-1 2,0 3,0 5,0 1,1 3,2 4,3 1,1 2,2 3,3 1,2 1,3 1,5l-7 0c0,-2 -1,-3 -2,-3 -1,-1 -2,-2 -4,-2 -1,0 -2,1 -2,1 -1,0 -2,1 -2,1 -1,1 -1,2 -2,3 0,0 0,1 0,2 0,1 0,2 0,3 1,1 1,2 2,2 0,1 1,1 2,2 0,0 1,0 2,0 2,0 3,0 4,-1 1,-1 2,-2 2,-3l7 0c0,1 0,3 -1,4 -1,2 -2,3 -3,4 -1,1 -3,2 -4,2 -2,1 -3,1 -5,1zm36 -20l-7 0 0 19 -7 0 0 -19 -7 0 0 -7 21 0 0 7zm13 11l-3 0 0 8 -7 0 0 -26 11 0c2,0 3,1 4,1 1,0 2,1 3,2 1,1 2,2 2,3 1,1 1,2 1,4 0,1 0,3 -1,4 -1,1 -2,2 -3,3l5 9 -8 0 -4 -8zm-3 -6l4 0c1,0 1,0 2,0 0,-1 1,-2 1,-2 0,-1 -1,-2 -1,-2 -1,-1 -1,-1 -2,-1l-4 0 0 5zm31 15c-2,0 -4,0 -6,-1 -2,-1 -3,-2 -4,-3 -2,-1 -3,-2 -3,-4 -1,-2 -1,-4 -1,-6 0,-2 0,-3 1,-5 0,-2 1,-3 3,-4 1,-2 2,-3 4,-3 2,-1 4,-1 6,-1 2,0 4,0 6,1 2,0 3,1 4,3 2,1 3,2 3,4 1,2 1,3 1,5 0,2 0,4 -1,6 0,2 -1,3 -3,4 -1,1 -2,2 -4,3 -2,1 -4,1 -6,1zm0 -7c1,0 2,0 3,0 1,0 1,-1 2,-2 1,0 1,-1 1,-2 1,-1 1,-2 1,-3 0,-1 0,-2 -1,-2 0,-1 0,-2 -1,-3 -1,0 -1,-1 -2,-1 -1,0 -2,-1 -3,-1 -1,0 -2,1 -3,1 -1,0 -1,1 -2,1 -1,1 -1,2 -1,3 -1,0 -1,1 -1,2 0,1 0,2 1,3 0,1 0,2 1,2 1,1 1,2 2,2 1,0 2,0 3,0z"/>
  <path class="fil1" d="M180 219c2,0 3,1 5,1 2,1 3,2 4,3 1,1 2,3 3,4 1,2 1,3 1,5 0,2 0,4 -1,6 -1,1 -2,3 -3,4 -1,1 -2,2 -4,2 -2,1 -3,1 -5,1l-11 0 0 -26 11 0zm-1 20c1,0 2,0 3,-1 1,0 1,0 2,-1 0,-1 1,-1 1,-2 1,-1 1,-2 1,-3 0,-2 -1,-3 -2,-4 -1,-1 -3,-2 -5,-2l-3 0 0 13 3 0zm31 7c-2,0 -4,0 -6,-1 -2,-1 -3,-2 -5,-3 -1,-1 -2,-2 -3,-4 0,-2 -1,-4 -1,-6 0,-2 1,-3 1,-5 1,-2 2,-3 3,-4 2,-2 3,-3 5,-3 2,-1 4,-1 6,-1 2,0 4,0 6,1 1,0 3,1 4,3 1,1 2,2 3,4 1,2 1,3 1,5 0,2 0,4 -1,6 -1,2 -2,3 -3,4 -1,1 -3,2 -4,3 -2,1 -4,1 -6,1zm0 -7c1,0 2,0 2,0 1,0 2,-1 3,-2 0,0 1,-1 1,-2 0,-1 1,-2 1,-3 0,-1 -1,-2 -1,-2 0,-1 -1,-2 -1,-3 -1,0 -2,-1 -3,-1 0,0 -1,-1 -2,-1 -1,0 -2,1 -3,1 -1,0 -2,1 -2,1 -1,1 -1,2 -2,3 0,0 0,1 0,2 0,1 0,2 0,3 1,1 1,2 2,2 0,1 1,2 2,2 1,0 2,0 3,0zm30 7c-2,0 -4,0 -5,-1 -2,-1 -3,-2 -5,-3 -1,-1 -2,-2 -3,-4 0,-2 -1,-4 -1,-6 0,-2 1,-3 1,-5 1,-2 2,-3 3,-4 2,-2 3,-3 5,-3 1,-1 3,-1 5,-1 2,0 4,0 5,0 2,1 3,2 4,3 1,1 2,2 3,3 1,2 1,3 1,5l-7 0c0,-2 -1,-3 -2,-3 -1,-1 -2,-2 -4,-2 -1,0 -2,1 -2,1 -1,0 -2,1 -2,1 -1,1 -1,2 -2,3 0,0 0,1 0,2 0,1 0,2 0,3 1,1 1,2 2,2 0,1 1,1 2,2 0,0 1,0 2,0 2,0 3,0 4,-1 1,-1 2,-2 2,-3l7 0c0,1 0,3 -1,4 -1,2 -2,3 -3,4 -1,1 -2,2 -4,2 -1,1 -3,1 -5,1z"/>
  <path class="fil2" d="M75 264c-1,0 -1,0 -2,0 0,0 -1,-1 -1,-1 0,0 -1,-1 -1,-1 0,-1 0,-1 0,-2 0,-1 0,-1 0,-2 0,0 1,0 1,-1 0,0 1,0 1,-1 1,0 1,0 2,0 1,0 2,0 2,1 1,0 1,1 2,1l-1 0c0,0 -1,-1 -1,-1 -1,0 -1,-1 -2,-1 -1,0 -1,1 -1,1 -1,0 -1,0 -2,0 0,1 0,1 0,2 0,0 -1,1 -1,1 0,1 1,1 1,1 0,1 0,1 0,2 1,0 1,0 2,0 0,1 0,1 1,1 1,0 1,-1 2,-1 0,0 1,-1 1,-1l1 0c-1,0 -1,1 -2,1 0,1 -1,1 -2,1zm11 -4l0 0 -7 0c0,1 0,1 0,2 0,0 1,0 1,1 0,0 1,0 1,0 1,1 1,1 1,1 1,0 2,-1 2,-1 1,0 1,-1 2,-1l0 0c0,1 -1,1 -1,2 -1,0 -2,0 -3,0 0,0 -1,0 -1,0 -1,0 -1,-1 -1,-1 -1,0 -1,-1 -1,-1 0,-1 0,-1 0,-2 0,-1 0,-1 0,-2 0,0 0,-1 1,-1 0,0 0,-1 1,-1 0,0 1,0 1,0 1,0 2,0 2,0 0,0 1,1 1,1 1,0 1,1 1,1 0,1 0,1 0,2zm-4 -4c0,0 0,1 -1,1 0,0 -1,0 -1,0 0,1 -1,1 -1,1 0,1 0,1 0,2l7 0c0,-1 0,-1 0,-2 -1,0 -1,0 -1,-1 -1,0 -1,0 -1,0 -1,-1 -1,-1 -2,-1zm9 0c1,0 1,0 2,0 0,1 0,1 1,1 0,1 0,1 1,1 0,1 0,1 0,2 0,1 0,1 0,2 -1,0 -1,1 -1,1 -1,0 -1,1 -1,1 -1,0 -1,0 -2,0 -1,0 -2,0 -2,0 -1,-1 -1,-1 -2,-2l0 5 0 0 0 -11 0 0 0 2c1,0 1,-1 2,-1 0,-1 1,-1 2,-1zm0 8c0,0 1,0 1,-1 1,0 1,0 1,0 1,-1 1,-1 1,-2 0,0 0,0 0,-1 0,0 0,-1 0,-1 0,-1 0,-1 -1,-2 0,0 0,0 -1,0 0,0 -1,-1 -1,-1 -1,0 -1,1 -1,1 -1,0 -1,0 -2,0 0,1 0,1 0,2 -1,0 -1,1 -1,1 0,1 0,1 1,1 0,1 0,1 0,2 1,0 1,0 2,0 0,1 0,1 1,1zm9 -4c1,0 1,0 1,1 0,0 1,0 1,1 0,0 0,0 -1,1 0,0 0,0 0,0 0,1 -1,1 -1,1 0,0 0,0 -1,0l-3 0 0 -8 3 0c1,0 1,0 2,1 0,0 0,0 0,1 0,0 0,1 0,1 0,0 -1,1 -1,1zm1 -2c0,0 0,-1 -1,-1 0,0 0,0 -1,0l-3 0 0 3 3 0c1,0 1,-1 1,-1 1,0 1,0 1,-1zm-2 6c1,0 1,-1 2,-1 0,0 0,-1 0,-1 0,-1 0,-1 0,-1 -1,-1 -1,-1 -2,-1l-3 0 0 4 3 0zm10 -8l0 8 -1 0 0 -7 -5 7 -1 0 0 -8 1 0 0 7 5 -7 1 0zm4 8c0,0 -1,0 -1,0 -1,0 -1,-1 -2,-1 0,0 0,-1 0,-1 -1,-1 -1,-1 -1,-2 0,-1 0,-1 1,-2 0,0 0,0 0,-1 1,0 1,0 2,-1 0,0 1,0 1,0 1,0 2,0 3,1 0,0 1,1 1,1l-1 0c0,0 0,-1 -1,-1 0,0 -1,-1 -2,-1 0,0 -1,1 -1,1 -1,0 -1,0 -1,0 -1,1 -1,1 -1,2 0,0 0,1 0,1 0,1 0,1 0,1 0,1 0,1 1,2 0,0 0,0 1,0 0,1 1,1 1,1 1,0 2,-1 2,-1 1,0 1,-1 1,-1l1 0c0,0 -1,1 -1,1 -1,1 -2,1 -3,1zm11 -8l0 8 -1 0 0 -4 -5 0 0 4 -1 0 0 -8 1 0 0 4 5 0 0 -4 1 0zm4 3c0,0 1,0 1,0 0,0 1,0 1,1 0,0 0,0 0,0 1,1 1,1 1,1 0,1 0,1 -1,1 0,1 0,1 0,1 0,0 -1,1 -1,1 0,0 -1,0 -1,0l-3 0 0 -8 1 0 0 3 2 0zm5 -3l0 8 -1 0 0 -8 1 0zm-5 8c0,0 1,-1 1,-1 0,0 0,0 1,0 0,0 0,0 0,-1 0,0 0,0 0,-1 0,0 0,0 0,0 0,-1 0,-1 0,-1 -1,0 -1,0 -1,0 0,-1 -1,-1 -1,-1l-2 0 0 5 2 0zm11 -10l-4 0 0 0 4 0 0 0zm1 2l0 8 0 0 0 -7 -6 7 0 0 0 -8 1 0 0 7 5 -7 0 0zm13 8l0 2 -1 0 0 -2 -6 0 0 -8 0 0 0 8 5 0 0 -8 1 0 0 8 1 0zm7 -4l0 0 -7 0c0,1 0,1 0,2 0,0 1,0 1,1 0,0 1,0 1,0 0,1 1,1 1,1 1,0 2,-1 2,-1 1,0 1,-1 2,-1l0 0c0,1 -1,1 -1,2 -1,0 -2,0 -3,0 0,0 -1,0 -1,0 -1,0 -1,-1 -1,-1 -1,0 -1,-1 -1,-1 0,-1 0,-1 0,-2 0,-1 0,-1 0,-2 0,0 0,-1 1,-1 0,0 0,-1 1,-1 0,0 1,0 1,0 1,0 2,0 2,0 0,0 1,1 1,1 1,0 1,1 1,1 0,1 0,1 0,2zm-4 -4c0,0 0,1 -1,1 0,0 -1,0 -1,0 0,1 -1,1 -1,1 0,1 0,1 0,2l7 0c0,-1 0,-1 -1,-2 0,0 0,0 0,-1 -1,0 -1,0 -1,0 -1,-1 -1,-1 -2,-1zm11 0l0 8 0 0 0 -4 -6 0 0 4 0 0 0 -8 0 0 0 4 6 0 0 -4 0 0zm7 1l-3 0 0 7 0 0 0 -7 -4 0 0 -1 7 0 0 1zm5 -1c0,0 1,0 1,0 1,1 1,1 1,1 1,1 1,1 1,1 0,1 0,1 0,2 0,1 0,1 0,2 0,0 0,1 -1,1 0,0 0,1 -1,1 0,0 -1,0 -1,0 -1,0 -2,0 -3,0 0,-1 -1,-1 -1,-2l0 5 -1 0 0 -11 1 0 0 2c0,0 1,-1 1,-1 1,-1 2,-1 3,-1zm0 8c0,0 0,0 1,-1 0,0 1,0 1,0 0,-1 1,-1 1,-2 0,0 0,0 0,-1 0,0 0,-1 0,-1 0,-1 -1,-1 -1,-2 0,0 -1,0 -1,0 -1,0 -1,-1 -1,-1 -1,0 -1,1 -2,1 0,0 -1,0 -1,0 0,1 -1,1 -1,2 0,0 0,1 0,1 0,1 0,1 0,1 0,1 1,1 1,2 0,0 1,0 1,0 1,1 1,1 2,1z"/>
 </g>
</svg>
