<svg xmlns="http://www.w3.org/2000/svg" width="94.489" height="99.431" viewBox="0 0 253 267" shape-rendering="geometricPrecision" text-rendering="geometricPrecision" image-rendering="optimizeQuality" fill-rule="evenodd" clip-rule="evenodd"><defs><style>.fil2{fill:#2b2a29}.fil1{fill:#cf142b}</style></defs><path d="M153 24c18 0 29 37 29 82 0 8 1 26-6 34-8 9-14 10-32 14h63l-34 10c-6 16-16 25-25 25-19 0-32-37-32-83 0-45 18-82 37-82zm-13 31c13-25 22-17 28 0 2 8 5 28-3 34s-17 5-26 6l-8 34c-1-27 2-58 9-74z" fill="#cf142b"/><path class="fil1" d="M130 0c-30 11-61 38-61 110 0 61 17 73 29 89-8-7-19-16-27-35l-24-10h20c-3-11-5-26-5-44C62 30 100 2 130 0z"/><path class="fil2" d="M165 22c-38-36-68 33-69 88-2 55 26 110 63 82-4 6-8 10-14 13 39 0 51 1 82 3-34 2-45 3-100 3s-67 0-101-3c31-3 45-3 88-3-9-4-16-11-23-21-11-17-18-42-18-74 0-55 21-91 46-102 16-7 37-4 46 14z"/><path class="fil2" d="M137 19c-11 14-28 37-28 91 0 55 12 75 32 86-18-2-41-27-39-86 1-58 24-87 35-91zM17 239v6H0v-26h17v7H7v3h9v6H7v4h10zm21 0v6H21v-26h7v20h10zm20 0v6H41v-26h17v7H48v3h9v6h-9v4h10zm16 7c-2 0-4 0-5-1-2-1-4-2-5-3s-2-2-3-4c0-2-1-4-1-6s1-3 1-5c1-2 2-3 3-4 1-2 3-3 5-3 1-1 3-1 5-1h5c1 1 3 2 4 3l3 3c1 2 1 3 1 5h-7c0-2-1-3-2-3-1-1-2-2-4-2-1 0-2 1-2 1-1 0-2 1-2 1-1 1-1 2-2 3v5c1 1 1 2 2 2 0 1 1 1 2 2h2c2 0 3 0 4-1s2-2 2-3h7c0 1 0 3-1 4-1 2-2 3-3 4s-3 2-4 2c-2 1-3 1-5 1zm36-20h-7v19h-7v-19h-7v-7h21v7zm13 11h-3v8h-7v-26h11c2 0 3 1 4 1s2 1 3 2 2 2 2 3c1 1 1 2 1 4 0 1 0 3-1 4l-3 3 5 9h-8l-4-8zm-3-6h6c0-1 1-2 1-2 0-1-1-2-1-2-1-1-1-1-2-1h-4v5zm31 15c-2 0-4 0-6-1s-3-2-4-3c-2-1-3-2-3-4-1-2-1-4-1-6s0-3 1-5c0-2 1-3 3-4 1-2 2-3 4-3 2-1 4-1 6-1s4 0 6 1c2 0 3 1 4 3 2 1 3 2 3 4 1 2 1 3 1 5s0 4-1 6c0 2-1 3-3 4-1 1-2 2-4 3s-4 1-6 1zm0-7h3c1 0 1-1 2-2 1 0 1-1 1-2 1-1 1-2 1-3s0-2-1-2c0-1 0-2-1-3-1 0-1-1-2-1s-2-1-3-1-2 1-3 1-1 1-2 1c-1 1-1 2-1 3-1 0-1 1-1 2s0 2 1 3c0 1 0 2 1 2 1 1 1 2 2 2h3z"/><path class="fil1" d="M180 219c2 0 3 1 5 1 2 1 3 2 4 3s2 3 3 4c1 2 1 3 1 5s0 4-1 6c-1 1-2 3-3 4s-2 2-4 2c-2 1-3 1-5 1h-11v-26h11zm-1 20c1 0 2 0 3-1 1 0 1 0 2-1 0-1 1-1 1-2 1-1 1-2 1-3 0-2-1-3-2-4s-3-2-5-2h-3v13h3zm31 7c-2 0-4 0-6-1s-3-2-5-3c-1-1-2-2-3-4 0-2-1-4-1-6s1-3 1-5c1-2 2-3 3-4 2-2 3-3 5-3 2-1 4-1 6-1s4 0 6 1c1 0 3 1 4 3 1 1 2 2 3 4s1 3 1 5 0 4-1 6-2 3-3 4-3 2-4 3c-2 1-4 1-6 1zm0-7h2c1 0 2-1 3-2 0 0 1-1 1-2s1-2 1-3-1-2-1-2c0-1-1-2-1-3-1 0-2-1-3-1 0 0-1-1-2-1s-2 1-3 1-2 1-2 1c-1 1-1 2-2 3v5c1 1 1 2 2 2 0 1 1 2 2 2h3zm30 7c-2 0-4 0-5-1-2-1-3-2-5-3-1-1-2-2-3-4 0-2-1-4-1-6s1-3 1-5c1-2 2-3 3-4 2-2 3-3 5-3 1-1 3-1 5-1h5c2 1 3 2 4 3l3 3c1 2 1 3 1 5h-7c0-2-1-3-2-3-1-1-2-2-4-2-1 0-2 1-2 1-1 0-2 1-2 1-1 1-1 2-2 3v5c1 1 1 2 2 2 0 1 1 1 2 2h2c2 0 3 0 4-1s2-2 2-3h7c0 1 0 3-1 4-1 2-2 3-3 4s-2 2-4 2c-1 1-3 1-5 1z"/><path class="fil2" d="M75 264h-2l-1-1-1-1v-4s1 0 1-1c0 0 1 0 1-1h2c1 0 2 0 2 1 1 0 1 1 2 1h-1l-1-1c-1 0-1-1-2-1s-1 1-1 1h-2v2l-1 1c0 1 1 1 1 1v2h2c0 1 0 1 1 1s1-1 2-1l1-1h1c-1 0-1 1-2 1 0 1-1 1-2 1zm11-4h-7v2s1 0 1 1h1l1 1c1 0 2-1 2-1 1 0 1-1 2-1 0 1-1 1-1 2h-4c-1 0-1-1-1-1-1 0-1-1-1-1v-4s0-1 1-1c0 0 0-1 1-1h3l1 1c1 0 1 1 1 1v2zm-4-4s0 1-1 1h-1c0 1-1 1-1 1v2h7v-2c-1 0-1 0-1-1h-1c-1-1-1-1-2-1zm9 0h2c0 1 0 1 1 1 0 1 0 1 1 1v4c-1 0-1 1-1 1-1 0-1 1-1 1h-4l-2-2v5-11 2c1 0 1-1 2-1 0-1 1-1 2-1zm0 8s1 0 1-1h1c1-1 1-1 1-2v-2c0-1 0-1-1-2h-1l-1-1c-1 0-1 1-1 1h-2v2c-1 0-1 1-1 1 0 1 0 1 1 1v2h2c0 1 0 1 1 1zm9-4c1 0 1 0 1 1 0 0 1 0 1 1l-1 1c0 1-1 1-1 1h-4v-8h3c1 0 1 0 2 1v2l-1 1zm1-2s0-1-1-1h-4v3h3c1 0 1-1 1-1 1 0 1 0 1-1zm-2 6c1 0 1-1 2-1v-2c-1-1-1-1-2-1h-3v4h3zm10-8v8h-1v-7l-5 7h-1v-8h1v7l5-7h1zm4 8h-1c-1 0-1-1-2-1v-1c-1-1-1-1-1-2s0-1 1-2v-1c1 0 1 0 2-1h1c1 0 2 0 3 1l1 1h-1s0-1-1-1c0 0-1-1-2-1l-1 1h-1c-1 1-1 1-1 2v2c0 1 0 1 1 2h1c0 1 1 1 1 1 1 0 2-1 2-1 1 0 1-1 1-1h1l-1 1c-1 1-2 1-3 1zm11-8v8h-1v-4h-5v4h-1v-8h1v4h5v-4h1zm4 3h1s1 0 1 1l1 1c0 1 0 1-1 1v1l-1 1h-4v-8h1v3h2zm5-3v8h-1v-8h1zm-5 8l1-1h1v-3h-1c0-1-1-1-1-1h-2v5h2zm11-10h-4 4zm1 2v8-7l-6 7v-8h1v7l5-7zm13 8v2h-1v-2h-6v-8 8h5v-8h1v8h1zm7-4h-7v2s1 0 1 1h1c0 1 1 1 1 1 1 0 2-1 2-1 1 0 1-1 2-1 0 1-1 1-1 2h-4c-1 0-1-1-1-1-1 0-1-1-1-1v-4s0-1 1-1c0 0 0-1 1-1h3l1 1c1 0 1 1 1 1v2zm-4-4s0 1-1 1h-1c0 1-1 1-1 1v2h7c0-1 0-1-1-2v-1h-1c-1-1-1-1-2-1zm11 0v8-4h-6v4-8 4h6v-4zm7 1h-3v7-7h-4v-1h7v1zm5-1h1l1 1 1 1v4s0 1-1 1c0 0 0 1-1 1h-4c0-1-1-1-1-2v5h-1v-11h1v2l1-1c1-1 2-1 3-1zm0 8l1-1h1c0-1 1-1 1-2v-2c0-1-1-1-1-2h-1c-1 0-1-1-1-1-1 0-1 1-2 1h-1c0 1-1 1-1 2v2c0 1 1 1 1 2h1c1 1 1 1 2 1z"/></svg>