<svg width="20" height="20" fill="none" xmlns="http://www.w3.org/2000/svg"><path d="M6.967 11.23c-.356 0-.661.164-.906.5-.246.332-.367.742-.367 1.229 0 .487.123.898.367 1.23.245.334.548.5.906.5.332 0 .62-.167.864-.5.245-.332.367-.743.367-1.23 0-.485-.124-.896-.367-1.228-.243-.335-.53-.501-.864-.501zm6.106 0c-.353 0-.66.164-.906.5-.245.332-.365.742-.365 1.229 0 .487.124.898.365 1.23.246.334.551.5.906.5.333 0 .621-.167.866-.5.246-.332.368-.743.368-1.23 0-.485-.123-.896-.368-1.228-.245-.335-.529-.501-.866-.501z" fill="#EAEAEA"/><path d="M17.413 6.719h-.002s.109-.557.012-1.53c-.085-.974-.292-1.87-.63-2.689 0 0-.172.03-.498.113a9.905 9.905 0 00-1.6.577c-.723.334-1.483.773-2.277 1.309-.539-.154-1.343-.232-2.421-.232-1.027 0-1.833.078-2.421.232C5.834 3.294 4.379 2.626 3.197 2.5a9.152 9.152 0 00-.626 2.694c-.094.974.016 1.536.016 1.536C1.64 7.756 1.25 9.24 1.25 10.46c0 .948.026 1.8.24 2.558.217.755.494 1.373.823 1.845.337.473.743.89 1.234 1.248.487.363.937.623 1.343.79.409.17.874.296 1.406.384.52.094.915.143 1.19.157 0 0 1.094.058 2.514.058 1.42 0 2.512-.058 2.512-.058.274-.014.67-.064 1.192-.157.53-.09.997-.218 1.404-.385a6.364 6.364 0 001.347-.79c.489-.352.895-.77 1.23-1.247.33-.472.606-1.09.825-1.845.214-.757.24-1.616.24-2.563 0-1.182-.391-2.682-1.337-3.736zm-2.554 9.127c-1.089.51-2.692.716-4.818.716l-.083-.001c-2.127 0-3.725-.205-4.799-.72-1.075-.51-1.612-1.564-1.612-3.153 0-.95.335-1.718.995-2.309.287-.254.642-.43 1.08-.536.435-.1.834-.108 1.21-.096.367.016.88.086 1.537.135C9.025 9.933 9.513 10 10 10c.457 0 1.063-.076 2.035-.155.976-.077 1.7-.116 2.167-.039.48.078.898.243 1.255.576.693.615 1.04 1.387 1.04 2.308 0 1.589-.553 2.644-1.638 3.155z" fill="#EAEAEA"/></svg>